<svg width="300" height="300" viewBox="0 0 300 300" fill="none" xmlns="http://www.w3.org/2000/svg">
<path d="M58 5.00461L120.38 144.605C164.237 138.587 64.592 4.10892 151.84 5.00461V290.605L82.38 112.105C29.4018 120.581 166.321 290.605 58 290.605V5.00461Z" fill="white"/>
<path d="M198.821 82.5431C257.382 82.5438 257.382 294.605 198.821 294.606C174.299 294.606 162.197 279.108 162.197 247.707C162.197 200.956 142.107 82.5431 198.821 82.5431ZM198.809 118.605C142.824 118.605 216.879 387.704 216.879 192.716C216.879 151.786 208.789 118.605 198.809 118.605ZM206.854 33.6056C213.38 29.1053 222.38 31.1054 225.253 33.6056C228.125 36.1081 204.379 74.1046 201.379 75.6095C198.379 77.1144 194.379 77.1045 193.379 75.6095C192.38 74.1099 200.328 38.1056 206.854 33.6056Z" fill="white"/>
</svg>
